<?xml version="1.0" standalone="no"?>
<!DOCTYPE svg PUBLIC "-//W3C//DTD SVG 20010904//EN"
 "http://www.w3.org/TR/2001/REC-SVG-20010904/DTD/svg10.dtd">
<svg version="1.0" xmlns="http://www.w3.org/2000/svg"
 width="200.000000pt" height="200.000000pt" viewBox="0 0 200.000000 200.000000"
 preserveAspectRatio="xMidYMid meet">

<g transform="translate(0.000000,200.000000) scale(0.100000,-0.100000)"
fill="#000000" stroke="none">
<path d="M0 1000 l0 -1000 1000 0 1000 0 0 1000 0 1000 -1000 0 -1000 0 0
-1000z m1090 512 c95 -32 114 -55 56 -66 -38 -7 -49 -32 -18 -38 9 -2 34 0 55
4 21 5 43 6 48 2 11 -6 3 -63 -11 -77 -4 -5 0 -17 10 -27 26 -26 36 -85 20
-118 -7 -15 -12 -57 -11 -94 2 -73 -12 -116 -53 -165 -27 -32 -27 -33 -6 -33
17 0 21 -5 18 -27 -3 -26 -6 -28 -57 -31 -44 -3 -53 -1 -48 12 5 12 2 13 -19
6 -33 -13 -106 -13 -138 0 -21 7 -26 6 -26 -5 0 -22 -86 -21 -94 1 -12 30 -7
56 9 50 17 -6 20 9 4 20 -6 3 -22 30 -35 58 -28 61 -34 156 -9 156 11 0 15
-11 15 -42 0 -24 3 -53 6 -65 6 -22 7 -21 28 10 11 17 44 44 73 58 59 30 61
41 4 26 -99 -27 -176 80 -122 169 39 64 128 70 176 12 22 -26 26 -39 23 -79
-2 -36 0 -45 9 -37 8 7 17 3 30 -11 25 -30 34 -26 17 7 -18 35 -18 56 2 97 20
43 73 69 120 60 29 -5 34 -3 34 13 0 16 -8 18 -74 17 -41 -1 -88 -7 -105 -15
-25 -10 -37 -10 -63 1 -18 7 -64 13 -104 14 l-72 0 9 -24 c12 -30 -3 -48 -20
-27 -7 8 -15 33 -18 56 -5 36 -3 40 16 40 16 0 23 8 27 30 6 28 13 32 98 60
50 16 96 29 101 30 6 0 49 -13 95 -28z m-705 -752 c0 -21 -5 -26 -31 -28 -22
-2 -33 2 -38 14 -9 24 13 46 43 42 20 -2 26 -9 26 -28z m665 -110 l0 -130 -30
0 -30 0 0 130 0 130 30 0 30 0 0 -130z m853 123 c3 -5 1 -18 -4 -30 -5 -15
-14 -20 -28 -16 -12 3 -21 1 -21 -6 0 -6 9 -11 20 -11 15 0 20 -7 20 -25 0
-18 -5 -25 -20 -25 -18 0 -20 -7 -20 -70 l0 -70 -30 0 -30 0 0 70 c0 56 -3 70
-15 70 -9 0 -15 9 -15 25 0 16 6 25 15 25 8 0 15 9 15 19 0 11 10 27 22 35 23
16 83 22 91 9z m-1644 -14 c34 -12 37 -17 19 -42 -11 -14 -19 -15 -47 -7 -35
10 -77 -3 -66 -20 3 -5 30 -16 60 -25 61 -17 80 -40 70 -86 -11 -51 -89 -74
-164 -48 -31 11 -39 31 -23 57 7 10 15 9 40 -4 18 -8 42 -14 54 -12 38 5 26
30 -23 47 -74 26 -93 53 -73 106 15 37 94 54 153 34z m1238 -19 c64 -39 65
-145 1 -193 -21 -16 -48 -22 -113 -25 l-85 -5 0 122 0 121 83 0 c64 0 89 -4
114 -20z m-1117 -125 l0 -95 -30 0 -30 0 0 95 0 95 30 0 30 0 0 -95z m195 85
c4 -7 13 -6 25 0 27 14 83 12 105 -4 16 -12 20 -29 23 -95 l4 -81 -31 0 -31 0
0 59 c0 61 -14 86 -43 75 -18 -7 -27 -35 -27 -91 0 -41 -1 -43 -30 -43 l-30 0
0 65 c0 49 -4 67 -15 71 -29 12 -45 -16 -45 -77 0 -59 0 -59 -30 -59 l-30 0 0
94 0 95 75 0 c41 0 77 -4 80 -9z m356 -3 c48 -36 52 -105 9 -149 -27 -27 -36
-30 -70 -25 -40 5 -40 5 -40 -29 0 -31 -3 -34 -30 -34 l-30 0 0 124 0 123 73
1 c41 1 79 -4 88 -11z m313 -9 c15 -13 29 -38 32 -55 l7 -33 -67 0 c-66 0 -88
-14 -41 -26 15 -4 32 -1 41 7 12 10 18 9 31 -4 23 -22 10 -45 -31 -53 -47 -8
-82 1 -112 31 -37 37 -29 108 15 142 27 21 97 16 125 -9z m480 0 c15 -13 29
-38 32 -55 l7 -33 -67 0 c-36 0 -66 -4 -66 -9 0 -16 38 -23 60 -11 16 9 25 8
36 -1 38 -31 -10 -65 -81 -55 -51 6 -85 43 -85 92 0 80 104 125 164 72z"/>
<path d="M947 1491 l-47 -16 102 -1 c57 -1 96 1 88 3 -8 3 -33 10 -55 17 -34
11 -47 10 -88 -3z"/>
<path d="M941 1441 c-49 -9 -48 -24 5 -43 41 -15 49 -15 87 0 52 19 53 20 41
31 -13 12 -93 20 -133 12z"/>
<path d="M861 1424 c0 -11 3 -14 6 -6 3 7 2 16 -1 19 -3 4 -6 -2 -5 -13z"/>
<path d="M855 1310 c-16 -7 -13 -9 17 -9 26 -1 41 -7 52 -23 35 -50 7 -108
-52 -109 -34 0 -35 -1 -13 -10 30 -12 77 5 91 32 23 43 7 94 -37 117 -25 14
-30 14 -58 2z"/>
<path d="M1120 1310 c-12 -7 -8 -10 16 -10 39 0 64 -27 64 -68 0 -39 -23 -62
-63 -62 -26 -1 -29 -2 -15 -11 43 -24 102 20 102 77 0 54 -65 100 -104 74z"/>
<path d="M807 1266 c-4 -10 -1 -16 7 -16 8 0 16 -9 19 -20 6 -23 30 -35 54
-26 14 6 14 9 -6 22 -13 9 -20 22 -17 31 5 11 1 13 -15 8 -13 -4 -25 -2 -29 5
-5 8 -9 7 -13 -4z"/>
<path d="M1070 1258 c0 -4 5 -8 10 -8 6 0 15 -11 20 -25 11 -28 54 -35 64 -10
4 10 -1 15 -15 15 -11 0 -23 8 -27 18 -7 17 -52 26 -52 10z"/>
<path d="M995 1141 c-6 -11 9 -23 19 -14 9 9 7 23 -3 23 -6 0 -12 -4 -16 -9z"/>
<path d="M1060 1136 c0 -7 14 -16 31 -20 17 -3 49 -23 70 -45 21 -21 41 -36
44 -33 3 3 5 26 5 52 l0 47 -38 -10 c-31 -8 -45 -7 -72 6 -40 20 -40 20 -40 3z"/>
<path d="M1024 1082 c-10 -15 -14 -15 -37 -3 -34 18 -75 2 -117 -46 -39 -44
-38 -64 5 -101 85 -75 206 -65 282 22 31 35 32 37 15 57 -30 37 -56 61 -77 69
-51 19 -60 20 -71 2z"/>
<path d="M1370 645 l0 -65 33 0 c46 0 77 24 77 61 0 40 -32 69 -75 69 l-35 0
0 -65z"/>
<path d="M842 648 c-18 -18 -14 -56 7 -68 27 -14 28 -13 46 14 29 43 -18 89
-53 54z"/>
<path d="M1150 650 c0 -5 14 -10 31 -10 17 0 28 4 24 10 -3 6 -17 10 -31 10
-13 0 -24 -4 -24 -10z"/>
<path d="M1635 650 c-4 -6 7 -10 25 -10 18 0 29 4 25 10 -3 6 -15 10 -25 10
-10 0 -22 -4 -25 -10z"/>
</g>
</svg>
